# xmcd
#
# Track frame offsets:
#	150
#	12235
#	24567
#	35007
#	44805
#	52940
#	62560
#	73795
#	86920
#	100595
#	113807
#	127152
#	138285
#	150862
#	165435
#	175932
#	189847
#	203115
#	216617
#	229582
#
# Disc length: 3256 seconds
#
# Revision: 0
# Processed by: cddbd v1.4PL0 Copyright (c) Steve Scherf et al.
# Submitted via: EasyCDDAExtractor 4.6.9.1
#
DISCID=130cb614
DTITLE=Johnny Farago - 20 Chansons D'or
DYEAR=1996
DGENRE=Country
TTITLE0=Je T'aime Je Te Veux
TTITLE1=Etre Naturel
TTITLE2=A T'aimer
TTITLE3=T'ai-Je Dit
TTITLE4=T'aurait Pas Du Mourir Si Jeune
TTITLE5=Pends-Moi
TTITLE6=Ces Long Week-End
TTITLE7=Cherie, Je Me Souviens
TTITLE8=Et Si Moi Je Ne Veux Pas (Avec Patrick Zabe)
TTITLE9=J'ai Ta Photo Dans Ma Chambre
TTITLE10=Prends Cette Lettre Maria
TTITLE11=Maman Aimait Les Roses
TTITLE12=La Clef Du Succes
TTITLE13=Trois Petit Coups
TTITLE14=1-2-3 Chante Avec Moi
TTITLE15=Les Amours D'ete
TTITLE16=Comme Elles Sont Belles
TTITLE17=Ne Pleure Pas Daddy
TTITLE18=Du Soleil
TTITLE19=Le King N'est Plus
EXTD=
EXTT0=
EXTT1=
EXTT2=
EXTT3=
EXTT4=
EXTT5=
EXTT6=
EXTT7=
EXTT8=
EXTT9=
EXTT10=
EXTT11=
EXTT12=
EXTT13=
EXTT14=
EXTT15=
EXTT16=
EXTT17=
EXTT18=
EXTT19=
PLAYORDER=
